<?xml version="1.0" encoding="UTF-8"?>
<svg width="26px" height="26px" viewBox="0 0 26 26" version="1.1" xmlns="http://www.w3.org/2000/svg" xmlns:xlink="http://www.w3.org/1999/xlink">
    <title>Combined Shape</title>
    <g id="✅-Pricing" stroke="none" stroke-width="1" fill="none" fill-rule="evenodd">
        <g id="Online-Delivery" transform="translate(-138.000000, -414.000000)" fill="#00AC08">
            <g id="Group-33" transform="translate(125.000000, 402.000000)">
                <path d="M26,12 C33.1797017,12 39,17.8202983 39,25 C39,32.1797017 33.1797017,38 26,38 C18.8202983,38 13,32.1797017 13,25 C13,17.8202983 18.8202983,12 26,12 Z M32.6455609,20.3656408 C32.1874535,19.8930554 31.4329779,19.8813186 30.9603925,20.3394259 L30.9603925,20.3394259 L30.9341776,20.3656408 L24.522,26.979 L22.0658224,24.4450424 C22.0572206,24.4361687 22.0484812,24.4274294 22.0396075,24.4188275 C21.5670221,23.9607201 20.8125465,23.972457 20.3544391,24.4450424 C20.1840936,24.6207715 20.0705299,24.8169349 20.0137481,25.0199096 C19.9569663,25.2228844 19.9569663,25.4326706 20.0137481,25.6356453 C20.0705299,25.8386201 20.1840936,26.0347834 20.3544391,26.2105126 L20.3544391,26.2105126 L23.3493599,29.3000853 L23.3755748,29.3263003 C23.4118814,29.3614945 23.4498517,29.3939157 23.4890275,29.4226769 C23.5378367,29.4957566 23.5950937,29.5665779 23.6607984,29.6343592 C24.1189057,30.1069446 24.8733813,30.1186814 25.3459668,29.6605741 C25.3548405,29.6519722 25.3635799,29.6432329 25.3721817,29.6343592 L25.3721817,29.6343592 L32.6455609,22.131111 L32.7409544,22.0233304 C32.8590606,21.8766441 32.9408264,21.7186236 32.9862519,21.5562438 C33.0430337,21.353269 33.0430337,21.1434828 32.9862519,20.9405081 C32.9294701,20.7375333 32.8159064,20.54137 32.6455609,20.3656408 Z" id="Combined-Shape"></path>
            </g>
        </g>
    </g>
</svg>