<?xml version="1.0" encoding="UTF-8"?><svg xmlns="http://www.w3.org/2000/svg" xmlns:xlink="http://www.w3.org/1999/xlink" width="127px" height="50px" viewBox="0 0 127 50" version="1.1">
    <title>Combined Shape</title>
    <g id="Symbols" stroke="none" stroke-width="1" fill="none" fill-rule="evenodd">
        <g id="Group" fill="#ffffff" transform="translate(0.359696, 0.223996)">
            <g id="Group-Copy" transform="translate(0.320000, 0.239999)">
                <path d="M76.8289084,2.26855199 C76.8645293,2.45362111 76.8813438,2.64181805 76.8790952,2.83027063 L76.7906368,10.1708804 L122.312444,1.23612665 C123.827459,0.938757288 125.296687,1.925854 125.594056,3.44086886 C125.627039,3.60890669 125.644512,3.7796197 125.646255,3.95085502 L125.961124,34.8899657 C125.97483,36.2367847 125.026221,37.4018969 123.704589,37.6615118 L73.358719,47.5512116 C71.8437482,47.8488052 70.3743744,46.8619259 70.0767808,45.3469551 C70.0419147,45.1694605 70.0243581,44.9890009 70.0243581,44.8081142 L70.0236368,38.4598804 L19.2715203,48.2844661 C10.5097739,49.9803512 2.03218849,44.2523389 0.336303345,35.4905925 C0.18366861,34.7020091 0.0900436931,33.9031427 0.056207169,33.1006365 C-0.398100706,22.3257447 7.1040048,12.8419166 17.6940934,10.8036053 L73.5554085,0.0517832562 C75.0715044,-0.24002499 76.5371002,0.752456177 76.8289084,2.26855199 Z M25.5196785,16.2613249 C23.4696304,15.5035967 21.1586671,15.2715607 18.8104303,15.6417788 C11.0575213,16.8640862 4.79555628,24.150573 4.79555628,31.8662085 C4.79555628,35.5935686 6.17467951,38.8798574 8.70928439,41.1266826 C11.2811629,43.4049049 14.7476078,44.3120629 18.5122415,43.7185386 C22.1277808,43.1485203 25.5569521,41.1914875 28.0915569,38.2200085 L28.0915569,38.2200085 L28.1824401,38.11528 C30.623246,35.2789512 32.0071033,31.743918 32.1543794,28.1492514 C32.2662003,26.4543099 30.9616242,25.2435898 29.3215858,25.4648812 L29.3215858,25.4648812 L18.9595247,27.098542 C17.5431278,27.3218482 16.3503726,28.7026507 16.3503726,30.1190475 C16.3503726,31.572718 17.5431278,32.5401523 18.9595247,32.3168462 L18.9595247,32.3168462 L25.7805937,31.2414507 C24.7742064,34.5683717 21.9414128,37.2514001 18.5122415,37.7920361 C16.3876462,38.1269953 14.4121453,37.5811558 12.9957485,36.3135179 L12.9957485,36.3135179 L12.9224118,36.2487894 C11.5157692,34.9863683 10.7593324,33.0878409 10.7593324,30.925972 C10.7593324,26.4904135 14.3748717,22.2675822 18.8104303,21.5682814 C20.1522799,21.3567282 21.4941295,21.517911 22.6868848,21.9635149 C24.1032816,22.5229544 25.9296881,21.7131766 26.7124337,20.1361001 C27.4951793,18.5590236 26.9733489,16.8521614 25.5196785,16.2613249 Z M104.42315,12.0778108 C104.33504,10.536317 103.030774,9.59535171 101.483277,9.96309038 C99.9177862,10.3351051 99.0232197,11.6286193 98.3895685,13.0092256 L98.3895685,13.0092256 L97.1738527,15.7889299 L96.9969068,16.1940961 C95.3630686,19.9352729 92.6363882,26.1799972 90.6739331,30.6467335 L90.6739331,30.6467335 L89.0885282,27.7612208 L88.9364385,27.4853088 C86.241464,22.5973018 83.1404828,17.0276685 82.9582977,16.6762276 L82.9582977,16.6762276 L82.8996403,16.5716283 L82.8202086,16.4375984 C82.2252198,15.4656762 81.3509847,14.7472174 79.9018624,15.0915788 C78.261824,15.4813085 76.9199743,17.1420279 76.9199743,18.7820663 L76.9199743,18.7820663 L76.9199743,40.4007549 L76.9247181,40.5681803 C77.0128702,42.1096639 78.318377,43.0503343 79.9018624,42.6740436 C81.5791744,42.2754564 82.9210241,40.614737 82.9210241,38.9746986 L82.9210241,38.9746986 L82.9210241,28.4262695 L88.3256962,38.2121925 L88.421683,38.3658317 C88.9267331,39.1016695 89.8003331,39.352712 90.6739331,39.1451145 C91.6228569,38.9196175 92.5360439,38.1665621 92.9935879,37.1606935 L92.9935879,37.1606935 L98.4641157,24.7326949 L98.4641157,35.281124 L98.4688611,35.448549 C98.557056,36.9900225 99.8638037,37.930398 101.483277,37.5455552 C103.086042,37.164683 104.427892,35.5039636 104.427892,33.8639251 L104.427892,33.8639251 L104.427892,12.2452365 Z M38.1181556,12.8596503 C36.4781172,12.8596503 35.1735411,14.2014999 35.1735411,15.8042647 L35.1735411,15.8042647 L35.1735411,37.4975006 C35.1735411,39.1002654 36.4781172,40.442115 38.1181556,40.442115 C39.7581941,40.442115 41.0627701,39.1002654 41.0627701,37.4975006 L41.0627701,37.4975006 L41.0627701,15.8042647 C41.0627701,14.2014999 39.7581941,12.8596503 38.1181556,12.8596503 Z M71.8087487,7.97197125 C71.7206394,6.43047746 70.4163736,5.48951216 68.8688765,5.85725084 C67.3033852,6.22926554 66.4088188,7.5227798 65.7751676,8.90338602 L65.7751676,8.90338602 L64.5594518,11.6830904 L64.3825059,12.0882565 C62.7486677,15.8294334 60.0219873,22.0741577 58.0595322,26.5408939 L58.0595322,26.5408939 L56.4741273,23.6553813 L56.3220375,23.3794692 C53.6270631,18.4914622 50.5260818,12.921829 50.3438968,12.5703881 L50.3438968,12.5703881 L50.2852394,12.4657888 L50.2058077,12.3317589 C49.6108189,11.3598366 48.7365838,10.6413778 47.2874615,10.9857393 C45.647423,11.375469 44.3055734,13.0361883 44.3055734,14.6762268 L44.3055734,14.6762268 L44.3055734,36.2949154 L44.3103172,36.4623408 C44.3984693,38.0038244 45.7039761,38.9444948 47.2874615,38.568204 C48.9647735,38.1696169 50.3066232,36.5088975 50.3066232,34.868859 L50.3066232,34.868859 L50.3066232,24.3204299 L55.7112953,34.106353 L55.8072821,34.2599922 C56.3123321,34.9958299 57.1859322,35.2468724 58.0595322,35.0392749 C59.0084559,34.8137779 59.921643,34.0607225 60.379187,33.0548539 L60.379187,33.0548539 L65.8497148,20.6268554 L65.8497148,31.1752845 L65.8544602,31.3427095 C65.942655,32.8841829 67.2494028,33.8245584 68.8688765,33.4397156 C70.4716413,33.0588434 71.813491,31.398124 71.813491,29.7580856 L71.813491,29.7580856 L71.813491,8.13939698 Z M122.691956,8.81617512 C122.691956,7.21341028 121.350107,6.20911155 119.747342,6.61229736 L119.747342,6.61229736 L110.466215,8.94702447 C108.826177,9.35958669 107.484327,11.0389872 107.484327,12.6417521 L107.484327,12.6417521 L107.484327,34.3349879 C107.484327,35.9377527 108.826177,36.9420515 110.466215,36.5294893 L110.466215,36.5294893 L119.747342,34.1947621 C121.350107,33.7915763 122.691956,32.1121758 122.691956,30.5094109 C122.691956,28.8320989 121.350107,27.8278002 119.747342,28.230986 L119.747342,28.230986 L113.448103,29.8156 L113.448103,24.5972958 L119.41188,23.0970695 C120.86555,22.7313894 122.021032,21.2852389 122.021032,19.8315685 C122.021032,18.4151716 120.86555,17.5130852 119.41188,17.8787654 L119.41188,17.8787654 L113.448103,19.3789917 L113.448103,14.1606875 L119.747342,12.5760735 C121.350107,12.1728877 122.691956,10.4934872 122.691956,8.81617512 Z" id="Combined-Shape"/>
            </g>
        </g>
    </g>
</svg>