<svg width="191" height="86" viewBox="0 0 191 86" fill="none" xmlns="http://www.w3.org/2000/svg">
<path fill-rule="evenodd" clip-rule="evenodd" d="M77.8813 70.3314L63.385 75.5249C68.5198 74.6423 73.3432 72.864 77.8813 70.3314M111.52 67.8266C105.762 69.1723 100.106 70.702 94.2689 71.3962C100.386 71.8986 106.019 70.0348 111.52 67.8266M97.2393 50.0691C97.2698 47.7937 95.8007 48.0789 94.4529 48.2733C89.8948 48.9283 87.5516 52.4404 85.3436 55.8199C83.734 58.2828 82.3714 61.0458 82.3339 64.1567C82.319 65.3428 82.6348 66.2855 84.1702 65.4387C88.362 63.1258 92.1307 60.3149 94.8499 56.3022C96.1453 54.3905 97.0448 52.2939 97.2393 50.0691M94.2924 68.7048C98 68.8889 101.558 67.8676 105.109 66.9658C120.454 63.0682 133.38 54.9042 145.096 44.4874C152.922 37.5286 160.008 29.8922 166.837 21.9907C167.461 21.2703 168.063 20.5168 169.002 20.1871C170.056 19.8173 170.801 19.9019 170.305 21.3069C170.184 21.6532 169.703 21.9767 170.36 22.1782C172.626 22.8742 172.011 24.5243 171.609 26.0252C170.856 28.8422 168.97 31.0626 167.356 33.3738C162.835 39.8494 158.065 46.1602 152.508 51.7907C147.349 57.0174 141.49 61.4382 135.51 65.6925C131.704 68.4005 127.795 71.1023 123.315 72.3259C120.338 73.1388 117.934 74.9563 115.03 75.7831C109.462 77.3678 103.9 78.887 98.082 79.2097C93.2935 79.4748 88.7703 78.5259 84.6047 76.1441C83.2316 75.3584 81.9404 75.3034 80.5464 75.8773C76.7891 77.4227 72.9707 78.8521 69.1645 80.2188C62.9724 82.4436 56.4557 83.6759 49.9338 84.6492C39.5316 86.2016 29.1146 86.6909 18.7098 84.6283C12.5944 83.416 6.64394 81.8235 2.05176 77.189C0.842644 75.9688 -0.0541582 74.6223 0.00254625 72.8091C0.0261004 72.0277 0.272983 71.4364 1.03806 71.1093C1.94271 70.7238 2.0221 71.3648 2.43909 71.9509C5.29787 75.9715 9.85428 76.4982 14.1839 77.3896C26.1154 79.8464 37.9867 78.7213 49.8292 76.6509C58.8914 75.0662 67.712 72.6129 76.2351 69.1304C76.9121 68.854 77.8455 68.8775 77.282 67.5998C75.3182 63.1485 75.6349 58.5968 77.2331 54.1672C79.6993 47.3297 83.7175 41.7864 91.1013 39.6689C95.0688 38.5307 97.7147 39.8197 100.042 43.1993C105.974 51.8081 102.719 61.078 95.956 66.6274C95.3497 67.1237 94.7443 67.6199 94.1397 68.1153C94.1903 68.3124 94.2418 68.5086 94.2924 68.7048" fill="white"/>
<path fill-rule="evenodd" clip-rule="evenodd" d="M170.419 9.50908C175.028 8.04176 179.339 5.97997 183.21 3.04708C178.947 5.20079 174.684 7.35537 170.419 9.50908M179.947 29.0912C180.055 24.1429 180.996 19.2997 181.749 14.432C181.861 13.7044 182.374 12.9112 181.47 12.2756C180.601 11.6654 179.931 12.2888 179.343 12.6801C176.137 14.8102 172.492 15.8695 168.999 17.3316C166.793 18.2561 164.742 19.6096 162.447 20.4895C158.912 21.843 155.474 23.4662 152.037 25.0648C150.295 25.8746 148.253 25.8247 146.738 27.3682C145.251 28.882 143.64 28.4258 141.811 25.9035C140.876 24.6166 140.494 22.9006 142.083 21.6793C143.391 20.6751 144.798 19.7558 146.271 19.0301C156.025 14.228 165.817 9.50558 175.575 4.71489C177.766 3.63979 179.887 2.4141 182.026 1.23218C185.914 -0.917149 187.56 -0.3402 189.638 3.63979C191.251 6.7294 191.38 9.77873 190.295 13.0697C188.208 19.4048 186.299 25.8002 185.424 32.4496C185.249 33.7821 185.26 35.1382 185.136 36.4795C184.994 38.0326 184.273 38.4292 182.955 37.5152C180.031 35.491 179.784 34.809 179.947 29.0912" fill="white"/>
</svg>
