<svg width="111" height="96" viewBox="0 0 111 96" fill="none" xmlns="http://www.w3.org/2000/svg">
<path fill-rule="evenodd" clip-rule="evenodd" d="M80.6675 8.08892C77.9212 9.12353 75.3015 10.4131 72.8515 12.0304C75.4571 10.7165 78.0623 9.40269 80.6675 8.08892M84.6209 8.94537C82.4073 9.49447 72.3194 15.1614 70.5183 16.825C75.2832 14.216 79.7474 11.2163 84.6209 8.94537M68.66 11.0565C71.541 9.46826 74.4091 7.91472 77.4868 6.7988C78.6511 6.3767 79.8308 6.00026 80.9978 5.58673C81.2623 5.49328 81.7113 5.44258 81.6311 5.08572C81.5349 4.65726 81.1407 4.95371 80.8721 4.9715C80.7989 4.97645 80.7277 5.01042 80.6559 5.03272C76.3195 6.38323 72.3695 8.50831 68.66 11.0565M48.6772 37.5417C48.325 38.5825 47.4216 39.2007 46.7413 39.9732C44.5534 42.458 42.4934 45.0343 40.6932 47.8136C40.1349 48.675 39.5602 49.4846 38.5002 49.8091C38.2429 49.8878 37.5275 50.1215 38.4068 50.4724C38.7762 50.6202 38.5285 50.8282 38.43 51.0038C37.5046 52.6533 36.6965 54.3883 35.5909 55.9071C35.1204 56.5542 35.0764 57.2502 34.7318 57.8537C33.6876 59.6825 33.2356 61.737 32.4256 63.6533C31.9361 64.8112 31.758 66.1006 31.4283 67.3786C31.0624 67.2617 31.3885 66.8176 31.0924 66.7719C30.8317 66.732 30.5934 66.9662 30.6084 67.1489C30.6689 67.884 30.0995 68.6681 30.7826 69.3608C31.0838 69.6656 30.9347 70.1123 30.6793 70.2225C30.2492 70.4077 29.891 70.4418 30.4861 70.8745C30.5383 70.9118 30.5507 71.0037 30.5812 71.0707C29.1937 71.6355 30.4455 72.5437 30.2931 73.2673C29.8944 75.1629 29.9065 77.1058 29.5333 79.0225C29.2649 80.4024 29.3462 81.9706 29.5066 83.4754C29.619 84.5306 29.6779 85.6756 29.4773 86.7513C29.3647 87.3549 29.2626 87.9428 29.3856 88.527C29.5523 89.3194 28.9906 89.57 28.508 89.9195C27.9095 90.3525 27.8558 89.7317 27.6153 89.4759C27.1792 89.0122 26.6023 89.3649 26.1402 89.3332C24.1607 89.1976 23.5108 87.7148 22.9132 86.3112C21.948 84.0437 21.7354 81.5804 21.5069 79.1459C20.7821 71.4174 21.8612 63.9091 24.5039 56.6435C26.9776 49.8423 30.6194 43.6653 35.0237 37.9366C36.8667 35.5396 38.9672 33.3632 40.9634 31.0982C42.5929 29.2491 44.229 27.424 46.0053 25.7208C48.8987 22.9469 51.8669 20.2613 55.0041 17.7599C60.2137 13.6057 65.5521 9.6416 71.4532 6.50626C74.5572 4.85766 77.8463 3.67468 81.2856 2.92916C81.8738 2.80144 82.4731 2.73096 83.0792 2.80815C83.5212 2.86475 84.0816 2.81052 84.242 3.31288C84.3906 3.77902 84.2549 4.28208 83.6212 4.65747C84.7773 4.52091 85.8437 4.3591 85.5654 5.95798C85.5236 6.19634 85.7074 6.22799 85.8626 6.34023C86.6658 6.92295 86.6883 7.5724 85.9655 8.31111C86.2236 8.3936 86.6077 8.01109 86.7383 8.46421C86.8282 8.77484 86.5092 8.91647 86.2822 9.02788C83.8193 10.2361 81.4459 11.6059 79.0618 12.9589C74.7745 15.3911 70.6233 18.015 66.6255 20.9114C62.9516 23.5735 59.4192 26.3978 55.9747 29.3378C54.62 30.4939 53.3921 31.7983 52.1968 33.1518C62.4299 23.5653 73.8215 15.6855 86.4179 9.55604C86.293 10.1815 85.7314 10.2915 85.3211 10.5193C75.2684 16.0998 65.619 22.263 56.924 29.8447C54.3539 32.0857 51.9696 34.5088 49.5564 36.9064C49.2846 37.1762 49.0039 37.4124 48.6635 37.5826C48.0293 37.0946 48.8402 36.9028 48.9446 36.7804C49.8666 35.699 50.8764 34.6937 52.0219 33.4967C50.6015 34.1049 44.6688 40.6399 44.5181 41.7169C45.041 40.7569 45.8163 40.0056 46.5557 39.2367C47.1796 38.5876 47.6069 37.6469 48.6772 37.5417" fill="white"/>
<path fill-rule="evenodd" clip-rule="evenodd" d="M56.3076 43.4505C57.5224 43.4455 57.7905 42.1065 58.8055 41.8696C58.9726 41.831 59.0308 41.5574 58.9092 41.3874C58.7675 41.19 58.4563 41.0826 58.338 41.2762C57.8182 42.1312 56.6953 42.4098 56.3076 43.4505M63.2106 41.2983C65.9754 39.4218 68.6512 37.4225 71.5529 35.7592C68.4067 37.0572 65.6342 38.9195 63.2106 41.2983M78.0566 35.4311C71.7474 37.5806 66.4791 41.353 61.7157 45.913C66.5749 41.5024 72.1325 38.1813 78.0566 35.4311M60.0124 40.4908C60.9327 39.8299 61.8066 39.0886 62.7844 38.5288C63.8992 37.8909 64.8545 37.0347 66.0286 36.4339C66.9239 35.9758 67.8836 35.2548 68.808 34.678C71.9851 32.6954 75.5153 31.4546 78.999 30.1339C79.5852 29.9117 80.2213 29.8022 80.8445 29.7069C81.0401 29.6772 81.2799 29.8654 81.429 29.6052C81.4734 29.5289 81.4671 29.3771 81.4185 29.3028C81.2348 29.0219 80.9545 29.1139 80.706 29.1771C79.6317 29.4496 78.5542 29.9832 77.4888 29.957C75.7777 29.9151 74.6238 31.0635 73.1714 31.5294C72.1302 31.8632 71.2763 32.7857 70.2578 32.893C68.7271 33.0541 67.7914 34.0611 66.611 34.7479C65.4806 35.4053 64.7338 36.6094 63.66 37.137C62.0652 37.921 60.8861 38.9829 60.0124 40.4908M83.0556 29.021C83.6708 29.0073 84.1792 28.9816 84.6867 28.9899C85.0112 28.9953 85.3937 28.9213 85.5433 29.352C85.6766 29.7336 85.358 29.8784 85.1487 30.0801C85.0078 30.2154 84.916 30.3713 84.9611 30.5777C86.1237 30.291 86.2189 30.4135 86.2902 31.6091C86.3077 31.8994 85.8825 32.4826 86.7087 32.6603C87.1037 32.7455 86.6382 33.1032 86.4301 33.2439C85.1781 34.0907 83.7519 34.5745 82.3347 35.0144C80.3537 35.6291 78.4335 36.403 76.5195 37.1742C72.1427 38.9378 68.3201 41.6231 64.658 44.5667C62.4048 46.3775 60.4158 48.4255 58.6772 50.7483C61.5266 48.1883 64.0173 45.2107 67.5217 43.0908C67.3858 43.857 66.8837 44.0393 66.5414 44.2982C63.077 46.9196 60.0133 49.9435 57.3292 53.3565C57.2114 53.5063 57.1592 53.864 56.8608 53.6413C56.0899 53.0657 55.8205 53.9229 55.6069 54.2222C55.2934 54.6625 54.5996 55.2179 55.4625 55.9752C53.7026 55.6938 54.0382 57.4581 53.0512 57.9222C53.6081 58.3252 53.7354 57.6104 54.2209 57.7414C53.7461 58.5684 53.2368 59.3546 52.8341 60.1921C52.5798 60.7201 52.2223 59.6883 51.9098 60.3814C51.4804 61.3334 50.6839 62.1175 50.2368 63.0639C50.0294 63.5031 49.573 63.3654 49.3854 63.8084C50.2623 63.8933 50.3037 64.1927 49.7885 64.8819C48.9805 65.9635 48.4361 67.1918 48.2168 68.5614C48.0691 69.487 47.4907 70.3002 47.3915 71.2566C47.3628 71.5358 47.0935 71.5315 46.877 71.5982C45.9412 71.8859 45.7556 72.3589 46.2155 73.2284C46.6438 74.0381 47.0116 74.8301 46.5811 75.7951C46.4604 76.0657 46.3706 76.1702 46.1198 76.2968C45.4919 76.6134 45.5789 77.7555 46.151 78.2287C46.899 78.8467 47.0754 79.9085 46.9953 80.6636C46.8634 81.9139 47.6265 82.703 47.9958 83.6797C48.1855 84.1823 48.0805 84.4104 47.7488 84.7306C47.0704 85.3848 46.7442 84.5496 46.3526 84.3453C46.0162 84.1693 45.9108 83.6878 45.4117 84.1486C45.166 84.3751 44.8487 84.147 44.6205 83.9248C44.024 83.3456 43.1223 82.9336 43.4741 81.8232C43.4792 81.8064 43.614 81.112 42.9889 81.4045C42.7866 81.4989 42.3996 81.1178 42.3072 80.7755C41.878 79.193 40.9502 77.7764 40.7837 76.1004C40.7454 75.7136 40.4905 75.3615 41.1268 75.3188C41.2723 75.309 41.4935 75.297 41.4438 75.109C41.4021 74.9523 41.163 74.6996 41.0885 74.724C40.3071 74.98 40.3199 74.3503 40.4434 74.015C40.7887 73.0772 40.2246 72.1871 40.4007 71.2934C40.6797 69.8764 40.5931 68.405 41.4607 67.0671C41.774 66.5834 41.5305 65.6025 41.7007 64.8245C42.1643 62.7041 43.1036 60.7647 43.8768 58.7687C44.4805 57.2115 45.3273 55.7441 46.0955 54.2498C47.8797 50.78 50.1457 47.6609 52.6354 44.6906C55.7289 41.0001 59.3672 37.8631 63.2363 35.0553C67.4269 32.0141 71.9639 29.5123 76.9896 28.0518C78.9464 27.483 80.9361 27.078 82.9942 27.3581C83.3773 27.4104 83.9424 27.2583 84.0527 27.7791C84.1496 28.2368 83.7072 28.4722 83.3338 28.6729C83.2504 28.7172 83.2042 28.8295 83.0556 29.021" fill="white"/>
<path fill-rule="evenodd" clip-rule="evenodd" d="M87.5155 41.5023C87.4753 41.8675 87.2844 42.0423 87.1033 42.2282C86.8883 42.4489 86.3544 42.553 86.6012 42.9672C86.8576 43.3964 87.1844 42.9691 87.4699 42.8564C87.5739 42.8154 87.6632 42.7323 87.7695 42.7002C88.239 42.5582 88.5324 42.6323 88.3319 43.2162C88.2892 43.3394 88.1248 43.5956 88.2761 43.5536C89.6212 43.1788 88.9206 44.3327 89.1905 44.7432C89.7536 45.5975 88.832 45.9115 88.5372 46.4438C87.7169 47.9266 86.2416 48.9376 85.6138 50.5856C85.3677 51.2313 84.6827 51.2179 84.0801 50.9015C84.1216 52.4329 82.8805 53.1944 82.0461 54.164C80.3678 56.1139 78.2046 57.7626 76.9707 59.9472C75.719 62.163 73.8313 63.6833 72.3526 65.6113L70.4307 66.8759C70.2065 67.1254 69.9578 67.3574 69.7621 67.6273C68.6992 69.0942 67.5878 70.515 66.1203 71.61C65.815 71.8374 65.5671 72.4005 65.2844 71.457C65.1751 71.0911 64.07 70.9821 63.4006 70.8424C63.0847 70.7766 62.7149 70.7624 62.7116 70.4195C62.7 69.2372 62.1409 68.084 62.8963 66.8649C64.8373 63.7322 66.963 60.7578 69.3662 57.955C71.2701 55.7347 73.2634 53.6063 75.2668 51.4821C76.8792 49.7725 78.5763 48.1623 80.3711 46.6311C82.1591 45.1056 83.7699 43.3717 85.6598 41.9463C86.2213 41.5231 86.7682 41.3618 87.5155 41.5023" fill="white"/>
<path fill-rule="evenodd" clip-rule="evenodd" d="M86.1955 34.0319C83.7066 35.5621 80.9569 36.4351 78.2208 37.3424L78.1179 37.0813C80.8106 36.0648 83.5032 35.0483 86.1955 34.0319" fill="white"/>
<path fill-rule="evenodd" clip-rule="evenodd" d="M77.3126 37.753C75.4404 38.711 73.5678 39.6692 71.6956 40.6272C73.282 39.1054 75.2677 38.3472 77.3126 37.753" fill="white"/>
</svg>
