<svg width="165" height="82" viewBox="0 0 165 82" fill="none" xmlns="http://www.w3.org/2000/svg">
<path fill-rule="evenodd" clip-rule="evenodd" d="M43.2381 42.749C43.1011 42.469 42.9651 42.188 42.8281 41.907C38.5071 43.452 34.1871 44.997 29.8661 46.541C29.9481 46.757 30.0301 46.973 30.1111 47.188C34.4871 45.708 38.8631 44.229 43.2381 42.749M64.5321 35.303C64.6121 35.521 64.6921 35.739 64.7721 35.957C85.5531 30.801 106.335 25.644 127.117 20.488C127.067 20.283 127.016 20.078 126.966 19.873C106.155 25.016 85.3431 30.16 64.5321 35.303M46.8711 27.169C46.7671 26.961 46.6631 26.753 46.5581 26.546C32.4441 31.34 18.4281 36.363 5.17812 44.435C19.3901 38.549 33.1311 32.859 46.8711 27.169M48.3931 79.679C47.6341 80.303 46.8751 80.926 46.2051 81.476C44.5091 81.17 42.8851 80.878 41.2611 80.585C41.2411 80.36 41.2201 80.1341 41.1991 79.9081C40.5661 80.4761 39.9331 81.045 39.1841 81.717C36.6981 79.512 34.4211 77.468 35.5171 73.453C37.6641 65.587 39.4881 57.635 41.4351 49.716C41.8631 47.978 42.2471 46.231 42.7851 43.913C39.5391 45.006 36.7101 45.794 34.0221 46.921C32.1831 47.693 30.5471 48.945 28.8081 49.961C28.3481 50.23 27.8601 50.473 27.3561 50.641C22.6561 52.206 17.9621 53.784 13.2431 55.287C11.3561 55.888 9.41312 56.311 7.49612 56.816C7.56512 56.482 7.63412 56.148 7.70312 55.814C6.29012 54.777 4.97612 53.551 3.44312 52.74C-0.311876 50.752 -1.32788 45.544 2.06812 42.918C5.91512 39.943 10.0041 37.045 14.4201 35.091C24.6921 30.544 35.1991 26.522 45.6721 22.443C47.5701 21.704 48.5101 20.816 49.0631 18.787C50.3231 14.16 51.8141 9.56905 53.6241 5.13105C54.3131 3.44305 56.0931 2.17605 57.4671 0.810047C57.7911 0.488047 58.5901 0.293047 58.9891 0.463047C60.6001 1.15005 62.1431 1.99805 63.7071 2.79505C67.6111 4.78905 68.7731 8.13605 68.4131 12.263C68.3291 13.22 68.4011 14.191 68.4011 15.465C74.9891 13.912 81.1821 12.19 87.4761 11.015C106.119 7.53505 124.784 4.17005 143.48 0.990047C148.111 0.203047 152.887 0.239047 157.602 0.00504699C158.698 -0.048953 159.817 0.344047 160.925 0.531047C160.984 0.883047 161.044 1.23605 161.103 1.58805C158.784 2.26305 156.495 3.38305 154.141 3.54105C139.252 4.54005 124.668 7.44305 110.13 10.527C96.8141 13.353 83.5961 16.637 70.3401 19.737C69.4221 19.952 68.5411 20.319 67.6421 20.616C67.6961 20.857 67.7491 21.099 67.8031 21.341C68.4981 21.235 69.2011 21.167 69.8871 21.018C89.5731 16.716 109.2 12.119 128.965 8.21705C139.181 6.20105 149.637 5.39305 159.994 4.11405C160.964 3.99505 162.001 4.42005 163.007 4.59205C162.521 5.39905 162.035 6.20705 161.481 7.12805C166.484 6.16805 163.224 10.233 163.941 12.094C163.309 12.422 162.314 12.938 161.035 13.602C161.852 13.798 162.344 13.916 162.837 14.035C162.857 14.174 162.877 14.313 162.898 14.453C158.798 15.247 154.697 16.04 150.597 16.833C150.535 16.624 150.473 16.415 150.411 16.206C151.739 15.885 153.067 15.564 154.394 15.243C154.341 15.051 154.288 14.858 154.235 14.666L135.825 18.157C135.842 18.365 135.86 18.572 135.877 18.779C137.612 18.55 139.346 18.32 141.081 18.091C141.128 18.285 141.175 18.479 141.221 18.673C139.316 19.123 137.405 19.555 135.505 20.025C112.23 25.781 88.9571 31.549 65.6781 37.292C63.9391 37.721 62.7011 38.411 62.5241 40.457C62.4731 41.042 61.5831 41.549 61.0921 42.106C60.8641 42.365 60.4311 42.801 60.4981 42.909C62.8221 46.734 59.1811 49.658 58.9661 53.09C58.9161 53.882 58.7051 54.829 58.2101 55.385C57.6401 56.027 58.5381 58.424 56.2671 57.198C55.8741 58.382 55.4811 59.568 55.0881 60.753C53.2401 65.302 51.3181 69.824 49.5841 74.416C48.9551 76.083 48.7771 77.92 48.3931 79.679" fill="white"/>
<path fill-rule="evenodd" clip-rule="evenodd" d="M50.7069 74.3276C51.7859 71.2316 52.9029 68.1486 53.9259 65.0356C54.3889 63.6256 54.6649 62.1546 55.0259 60.7116C55.4099 60.3836 55.7939 60.0566 56.1779 59.7276C56.3989 59.8416 56.6209 59.9536 56.8419 60.0666C54.7969 64.8206 52.7519 69.5746 50.7069 74.3276" fill="white"/>
</svg>
