<svg width="190" height="199" viewBox="0 0 190 199" fill="none" xmlns="http://www.w3.org/2000/svg">
<path fill-rule="evenodd" clip-rule="evenodd" d="M45.1192 156.775C44.8812 156.582 44.6422 156.388 44.4042 156.194C42.9372 158.47 41.4702 160.746 40.0032 163.022C40.1802 163.136 40.3572 163.251 40.5342 163.365L45.1192 156.775ZM163.98 25.094C164.194 25.303 164.407 25.511 164.62 25.72C168.337 22.097 172.053 18.474 175.768 14.851C175.53 14.608 175.291 14.365 175.052 14.123C171.361 17.78 167.671 21.437 163.98 25.094V25.094ZM95.1322 94.637C98.9832 90.925 102.834 87.212 106.685 83.501L106.066 82.881C104.63 84.244 103.177 85.588 101.765 86.975C100.282 88.433 98.7732 89.875 97.4032 91.435C96.5432 92.413 95.9162 93.597 95.1852 94.689C92.8232 97.236 90.4602 99.784 88.0972 102.331C87.3172 102.881 86.4032 103.312 85.7772 104.002C81.0812 109.175 76.3412 114.314 71.8132 119.632C67.3292 124.9 62.9952 130.301 58.7612 135.772C56.6722 138.47 54.9572 141.458 53.0732 144.315C53.2862 144.458 53.4982 144.601 53.7112 144.744C57.0992 140.217 60.3202 135.552 63.9132 131.194C70.6162 123.067 77.5472 115.128 84.3532 107.084C85.6562 105.544 86.8192 103.885 88.0462 102.281C90.4082 99.733 92.7702 97.185 95.1322 94.637V94.637ZM41.2302 124.945C36.8202 129.74 32.3872 134.515 28.0042 139.336C22.8072 145.053 17.6402 150.798 12.4942 156.561C11.7792 157.362 11.1232 158.273 10.6682 159.24C8.8982 163.01 5.4982 162.66 2.2952 162.511C0.416204 162.424 -0.714796 159.504 0.511204 157.792C3.8932 153.07 7.1822 148.246 10.9562 143.848C22.6652 130.202 34.5852 116.738 46.4122 103.195C47.4272 102.033 48.3132 100.756 49.3572 99.624C50.4292 98.46 51.3222 96.4 53.2632 98.961C53.7872 99.652 55.4812 99.331 56.4562 99.83C59.8522 101.568 60.5822 102.938 59.5052 106.539C58.0702 111.338 56.3212 116.045 54.6762 120.78C53.4752 124.236 52.3002 127.704 50.9782 131.114C49.3062 135.426 47.3452 139.63 45.8082 143.987C44.9022 146.557 44.5762 149.331 43.9892 152.013C44.2042 152.239 44.4202 152.466 44.6352 152.692C44.8302 152.154 44.9072 151.525 45.2412 151.093C49.5592 145.514 53.9392 139.981 58.2542 134.398C62.2002 129.293 65.8222 123.913 70.0502 119.057C79.1922 108.557 88.2722 97.963 98.0242 88.044C116.779 68.966 136.02 50.367 154.987 31.496C164.937 21.596 174.732 11.54 184.608 1.565C185.084 1.084 185.663 0.705 186.54 0C186.48 1.159 186.445 1.839 186.41 2.518C186.578 2.616 186.809 2.815 186.864 2.775C188.112 1.85 189.378 2.516 189.671 3.482C190.015 4.613 189.938 6.304 189.292 7.226C187.18 10.245 184.792 13.083 182.383 15.88C180.274 18.33 178.067 20.705 175.774 22.982C169.942 28.772 164.707 35.134 158.601 40.67C156.931 42.184 155.791 44.284 154.399 46.108C154.014 46.612 153.636 47.13 153.188 47.574C143.42 57.272 133.666 66.984 123.856 76.64C119.415 81.011 114.818 85.223 110.367 89.585C107.277 92.613 104.39 95.851 101.253 98.825C100.311 99.718 99.8132 102.072 97.5772 100.695C97.5242 100.663 96.9662 101.281 96.7822 101.663C96.1762 102.926 95.5502 104.191 95.0832 105.508C94.1722 108.075 91.9612 109.286 90.0002 110.859C88.4132 112.133 87.2962 113.977 85.8632 115.465C84.4122 116.973 81.9402 118.134 81.5192 119.843C80.9452 122.174 78.9772 122.878 77.9762 124.57C76.0742 127.788 73.9562 130.892 71.7422 133.907C68.8282 137.874 66.2662 142.358 62.5562 145.402C59.4412 147.959 57.9692 151.405 55.4812 154.226C52.1962 157.951 49.4892 162.212 46.7632 166.392C44.7692 169.447 43.6982 173.316 41.1802 175.749C39.1872 177.674 38.9112 180.175 37.3662 181.939C34.1912 185.564 32.4402 189.946 30.3692 194.111C28.7552 197.362 26.5562 198.763 23.2442 198.206C21.9822 197.994 20.0702 199.743 19.1892 196.438C18.5612 194.08 17.2902 194.396 18.1652 191.919C25.8472 170.194 33.5432 148.474 41.2312 126.751C41.4052 126.261 41.5332 125.754 41.6822 125.255C41.5322 125.152 41.3812 125.048 41.2302 124.945V124.945Z" fill="white"/>
<path fill-rule="evenodd" clip-rule="evenodd" d="M149.537 3.08301C149.867 3.77401 149.972 4.48901 150.37 4.74501C152.737 6.25901 152.84 7.16301 150.529 9.01901C145.579 12.994 140.493 16.804 135.627 20.878C127.66 27.551 119.748 34.294 111.963 41.178C107.389 45.223 102.91 49.413 98.7362 53.864C92.6162 60.39 86.7572 67.164 80.8862 73.918C76.9042 78.5 73.0732 83.214 69.2142 87.902C67.8922 89.509 66.2102 88.795 65.4062 87.905C64.6842 87.106 64.3732 85.045 64.9062 84.156C67.3732 80.041 70.0852 76.058 72.9132 72.176C92.3822 45.445 117.551 24.879 144.458 6.20801C146.081 5.08201 147.827 4.12901 149.537 3.08301" fill="white"/>
</svg>
