<svg width="187" height="119" viewBox="0 0 187 119" fill="none" xmlns="http://www.w3.org/2000/svg">
<path fill-rule="evenodd" clip-rule="evenodd" d="M155.681 12.9898C155.629 12.8037 155.579 12.6167 155.528 12.4306C151.712 13.4863 147.896 14.5411 144.079 15.5968C144.141 15.8163 144.201 16.0367 144.262 16.258C148.069 15.1689 151.875 14.0789 155.681 12.9898M25.871 102C23.8945 100.848 21.5025 100.199 22.0906 97.3357C22.4658 95.515 22.7818 93.5983 23.6112 91.9724C26.1723 86.9479 28.5472 81.7467 31.7755 77.1638C36.0624 71.0793 42.1489 67.0787 49.8024 66.7786C57.1047 66.4913 64.4379 66.8729 71.7556 67.059C81.8071 67.3137 91.9006 68.1918 101.249 63.0653C107.247 59.7756 112.341 55.7767 115.56 49.4641C119.199 42.3257 123.044 35.2541 127.353 28.5059C133.36 19.1 141.837 12.9718 153.17 11.3698C154.318 11.2077 155.776 10.7223 156.581 11.2154C157.942 12.0499 159.077 13.4366 159.922 14.8258C160.218 15.3104 159.62 16.8943 159.004 17.2596C157.685 18.0426 156.049 18.2699 154.617 18.8933C153.48 19.3873 152.452 20.1308 151.378 20.7688C151.18 20.8863 150.979 21.1564 150.804 21.1376C146.981 20.7097 145.252 24.0585 142.599 25.705C136.471 29.5118 132.803 35.4205 129.479 41.5633C126.34 47.3648 123.353 53.2486 120.154 59.0158C119.242 60.6606 118.026 62.2583 116.603 63.4778C112.473 67.0213 108.246 70.1677 102.979 72.3348C92.7644 76.5369 82.5051 75.3449 72.0862 74.7308C65.6339 74.3501 59.1035 73.995 52.6915 74.5679C44.553 75.2943 38.9146 80.4329 34.4062 86.9616C33.2196 88.6793 31.4175 89.9708 30.2172 91.6808C29.4221 92.8145 29.2581 94.3727 28.7009 95.6943C27.8311 97.7627 26.8687 99.7917 25.871 102" fill="white"/>
<path fill-rule="evenodd" clip-rule="evenodd" d="M24.0223 49.7457C24.1365 49.9509 24.2517 50.157 24.365 50.3621C26.302 49.2951 28.2399 48.228 30.1777 47.1609C30.0489 46.9282 29.92 46.6956 29.7912 46.463C27.8688 47.5575 25.9447 48.6512 24.0223 49.7457M80.8675 49.708C80.9181 49.8968 80.9688 50.0857 81.0195 50.2746C83.38 49.6359 85.7396 48.998 88.1 48.3593C88.0493 48.173 87.9995 47.9876 87.9497 47.8013C85.5892 48.4374 83.2288 49.0727 80.8675 49.708M131.638 0.884224C131.203 1.25165 130.769 1.61993 130.097 2.18824H132.25C133.783 4.99629 132.814 7.05061 130.716 8.85683C128.888 10.4304 127.196 12.2229 124.49 12.1379C124.211 12.1293 123.746 12.2435 123.668 12.4281C122.64 14.8713 120.839 14.7691 118.893 13.8909C118.781 15.049 118.929 16.2277 118.506 17.1445C118.052 18.1317 117.092 18.9026 116.303 19.719C111.736 24.4389 109.954 30.5452 107.664 36.4618C105.558 41.9019 102.622 46.9377 97.3993 50.1209C96.7164 50.5364 95.8291 50.618 94.532 51.0043C93.6902 52.3787 92.449 54.0793 89.7776 54.3308C88.2237 54.4776 86.7927 55.8349 85.2328 56.0194C80.9379 56.5268 76.5554 57.2385 72.2992 56.8547C68.3522 56.4985 64.4233 55.1009 60.6644 53.6878C52.4887 50.6154 44.13 50.1458 35.7482 51.9812C31.0934 53.0011 26.7779 55.2193 23.61 59.1365C22.6514 60.3221 21.3423 61.2175 20.2437 62.2966C14.8931 67.5504 10.679 73.5915 7.72328 80.4927C6.81191 82.6226 5.94349 84.7713 5.03555 86.9037C4.60692 87.9064 4.11989 88.4044 2.92419 87.5991C-0.0186501 85.6169 -0.463599 84.3206 0.378196 80.6713C3.75654 66.018 12.6581 55.3558 24.7516 47.0699C30.1099 43.3982 36.395 42.6496 42.6612 42.8239C46.8882 42.9424 51.1384 43.7468 55.2872 44.6576C59.156 45.5066 62.884 46.9729 66.709 48.04C71.3578 49.3363 75.9979 48.4744 80.6098 47.6949C92.2429 45.7281 99.4411 38.8252 102.989 27.7303C106.924 15.4276 114.829 6.52695 126.55 1.09541C128.003 0.423226 129.732 0.350256 131.333 0C131.435 0.294455 131.537 0.58891 131.638 0.884224" fill="white"/>
<path fill-rule="evenodd" clip-rule="evenodd" d="M153 53.1402C152.098 54.1161 151.181 55.0793 150.299 56.0721C149.92 56.4986 149.229 57.2676 149.33 57.4024C150.704 59.2355 149.259 60.765 148.26 61.4654C145.697 63.2637 146.536 65.8166 146.181 68.0855C145.97 69.4344 144.267 71.549 143.017 71.7813C142.915 71.1657 142.816 70.5646 142.717 69.9635C142.169 70.2297 141.524 70.3925 141.093 70.7851C140.353 71.4617 139.745 72.2815 138.884 73.2668C139.781 73.4406 140.394 73.5593 141.039 73.6831C141.163 74.4572 141.283 75.2024 141.402 75.9392C139.058 76.7964 136.697 77.2085 134.902 79.2001C133.926 80.2837 132.574 80.7907 133.347 82.5797C133.413 82.7314 132.479 83.5869 132.328 83.5089C128.674 81.6301 126.689 84.9774 125.577 86.73C124.66 88.1739 123.591 88.948 122.41 89.4991C121.504 89.9213 120.132 89.3456 118.963 89.2506C118.672 89.2269 118.369 89.3448 117.919 89.4236C117.972 90.1129 118.02 90.7369 118.065 91.3457C115.973 92.2266 115.973 92.2266 111.222 90.9218C110.801 93.5196 108.67 94.3946 105.913 92.9812C105.757 93.4984 105.609 93.9902 105.589 94.058C102.738 93.9961 99.7563 91.1575 97.3029 95.3171C95.1442 92.96 92.905 93.9715 90.4558 95.2052C89.3074 95.7826 87.7546 95.6927 86.3844 95.702C80.7884 95.7393 75.2859 96.109 69.8425 97.7165C67.1756 98.5042 64.9158 100.108 62.4007 100.837C56.9684 102.41 54.4764 107.18 50.6681 110.467C48.8813 112.009 47.9712 114.534 46.6215 116.587C45.798 117.838 45.444 119.814 43.054 118.643C41.2038 117.737 40.5063 116.578 41.3632 114.354C45.3455 104.023 51.7855 95.9971 62.3998 91.4788C70.3918 88.0789 78.7189 88.0348 87.1145 87.8093C92.5407 87.6634 97.9593 87.2845 103.385 87.0437C104.224 87.0072 105.654 86.2526 105.273 88.2205L105.283 88.1823L104.234 88.5766C104.225 88.6978 104.218 88.8191 104.209 88.9403C104.734 88.9878 105.272 89.1252 105.781 89.059C106.38 88.9819 106.961 88.5554 107.539 88.5766C112.211 88.7453 116.148 86.5061 120.059 84.5569C124.213 82.4856 128.088 79.8462 131.999 77.3238C133.19 76.5565 134.096 75.3567 135.133 74.3546L135.065 74.4114C135.832 73.8094 136.597 73.2066 137.847 72.2239C136.435 72.1366 135.718 72.0925 134.583 72.0229C136.119 70.1712 137.398 68.4119 138.913 66.8798C139.917 65.8641 140.609 66.3075 141.324 68.1118C142.468 68.0329 143.57 67.9574 144.891 67.8659C144.256 67.0189 143.722 66.3033 143.344 65.8005C142.341 65.7191 141.099 65.9099 140.895 65.5393C140.518 64.8577 140.61 63.8199 140.766 62.9771C140.986 61.7884 141.357 60.6056 141.831 59.4907C142.117 58.8209 142.722 58.285 143.411 57.3939C142.962 55.5549 143.741 53.6616 147.042 49.4605C147.493 49.6818 147.969 49.9141 148.557 50.2024C148.262 47.3578 148.555 46.8999 149.964 47.0161V49.9302L149.916 49.8649C150.409 50.8654 150.902 51.865 151.451 52.9817C151.583 52.946 152.069 52.8121 152.557 52.6773C152.704 52.8316 152.853 52.9859 153 53.1402" fill="white"/>
<path fill-rule="evenodd" clip-rule="evenodd" d="M154.025 51C153.881 50.8476 153.735 50.6952 153.591 50.5428C153.897 47.3091 153.761 47.1651 151 47.7654L151.047 47.8299C152.048 46.8812 153.049 45.9317 154.174 44.8641C153.465 44.412 152.788 43.9799 151.752 43.3193C152.637 42.8069 153.269 42.4217 153.922 42.075C154.138 41.9603 154.512 42.0315 154.638 41.8758C159.571 35.8195 166.115 32.1604 173.351 29.6802C176.698 28.5331 180.23 27.9227 183.685 27.098C184.179 26.9799 184.713 27.0285 185.228 27L185.445 27.7251C181.112 28.9928 176.778 30.2605 172.445 31.5282C172.501 31.7384 172.557 31.9485 172.613 32.1595C177.111 30.922 181.608 29.6836 186.063 28.4578C187.628 31.8983 187.386 32.3211 184.167 33.6985C179.944 35.5071 175.789 37.474 171.589 39.3362C170.753 39.7063 169.961 40.2924 168.96 39.2692C168.552 38.8547 167.362 39.2014 166.308 39.2014V37.6482C165.309 38.2787 164.451 38.8196 163.076 39.687C164.293 39.8319 164.888 39.9022 165.46 39.9709C165.46 40.1986 165.518 40.3778 165.453 40.4607C164.725 41.3776 163.635 41.8247 163.729 43.532C163.793 44.7017 162.241 44.6624 161.549 43.5613C160.925 44.2512 160.297 44.9454 159.358 45.982C159.525 48.1213 157.975 49.3731 155.086 48.5241C155.194 49.2207 155.45 49.8646 155.311 50.4072C155.238 50.6952 154.477 50.8083 154.025 51" fill="white"/>
<path fill-rule="evenodd" clip-rule="evenodd" d="M125 79.7131C121.822 81.1423 118.643 82.5708 115.465 84C115.309 83.7857 115.155 83.5714 115 83.3571C115.436 83.0749 115.842 82.7512 116.31 82.5168C118.523 81.4075 120.736 80.2959 122.99 79.2505C123.476 79.0262 124.133 79.0763 124.712 79C124.808 79.2374 124.904 79.4756 125 79.7131" fill="white"/>
<path fill-rule="evenodd" clip-rule="evenodd" d="M104 87C105.603 84.3122 108.538 84.813 111 84C110.883 85.4516 108.791 86.288 104.018 86.9491C104.01 86.9624 104 87 104 87" fill="white"/>
<path fill-rule="evenodd" clip-rule="evenodd" d="M135 73.3438C134.12 73.4609 133.183 73.4689 132.379 73.726C131.589 73.9784 130.935 74.4838 130 75C130.219 73.4467 132.243 71.7858 133.551 72.0227C134.117 72.1243 134.474 72.9131 134.927 73.3895C134.93 73.3889 135 73.3438 135 73.3438" fill="white"/>
</svg>
