<svg width="81" height="59" viewBox="0 0 81 59" fill="none" xmlns="http://www.w3.org/2000/svg">
<path fill-rule="evenodd" clip-rule="evenodd" d="M3.27069 51.7288C3.49892 51.7288 3.70519 51.7797 3.7433 51.7213C4.39732 50.7177 5.01365 49.6901 5.67265 48.6898C6.25253 47.8088 6.71643 46.8627 7.26566 45.9656C7.56099 45.4822 7.90768 45.0299 8.21501 44.5527C8.442 44.1994 8.56294 43.7198 8.87442 43.4915C9.31472 43.1685 9.22111 42.6474 9.5446 42.2725C10.0657 41.6699 10.4008 40.9082 10.8286 40.2231C11.5195 39.1167 12.2286 38.022 12.917 36.9144C13.3167 36.272 13.8022 35.671 13.9326 34.872C13.6874 35.0551 13.4733 35.2684 13.3171 35.5178C12.8512 36.2617 12.415 37.0242 11.9536 37.771C11.7299 38.133 11.4673 38.4706 11.2362 38.8285C10.9885 39.2124 10.7561 39.6063 10.5171 39.9961C10.2781 40.3859 10.0524 40.7847 9.79726 41.1633C9.26667 41.9511 8.72986 42.734 8.33927 43.6054C8.28253 43.7326 8.19844 43.8478 8.12637 43.9683C7.74821 44.6012 7.16336 45.1098 6.98318 45.8637C6.95915 45.9631 6.92188 46.0902 6.84773 46.1412C6.18708 46.5922 5.87809 47.3283 5.53347 47.974C5.17685 48.643 4.52282 49.1843 4.50087 50.0231C4.0904 50.1565 4.14383 50.6734 3.89034 50.8424C3.55939 51.0636 3.48856 51.3539 3.27069 51.7288M11.8575 44.7772C12.345 44.2073 12.7936 43.5976 13.3271 43.0744C15.3285 41.1132 17.3502 39.1718 19.3806 37.2404C20.3196 36.3466 21.1244 35.3102 22.2312 34.5895C22.5712 34.3683 22.8359 34.0258 23.1138 33.7193C23.3884 33.4157 23.8677 33.3946 24.023 32.8693C24.1133 32.5633 24.624 32.3918 24.9239 32.135C25.4238 31.7075 25.9362 31.2751 26.4018 30.8298C27.5756 29.7078 28.9901 28.8458 29.985 27.534C30.0297 27.4744 30.084 27.3899 30.1449 27.3791C30.6792 27.2876 30.8735 26.7793 31.2471 26.4931C31.6203 26.2073 31.9964 25.9224 32.3505 25.6134C33.0725 24.9838 33.7385 24.2792 34.511 23.7201C35.0225 23.3493 35.4363 22.8863 35.9267 22.5102C37.1068 21.6047 38.2856 20.7034 39.411 19.7263C39.8488 19.3465 40.2584 18.888 40.7501 18.6109C41.6709 18.0923 42.3945 17.338 43.2407 16.7346C44.4179 15.895 45.4803 14.8943 46.6599 14.0588C47.7712 13.2718 48.8473 12.4409 49.9466 11.6403C50.9287 10.9262 51.9228 10.2295 52.9119 9.52497C53.7548 8.92479 54.6002 8.3271 55.4389 7.72112C55.5702 7.62627 55.6725 7.49249 55.7972 7.36781C55.7028 7.30527 55.6584 7.26178 55.6456 7.26923C55.1655 7.56663 54.6432 7.8168 54.2237 8.1842C53.8161 8.54041 53.1235 8.48284 52.9251 9.11036C51.9961 9.77598 51.0637 10.4375 50.138 11.1076C49.1522 11.8221 48.1618 12.5304 47.1938 13.2685C46.387 13.8832 45.6538 14.606 44.8076 15.1569C43.599 15.9434 42.5092 16.8766 41.3685 17.7456C40.4125 18.4738 39.5468 19.3217 38.5859 20.0424C37.4249 20.9134 36.2776 21.7957 35.1981 22.7666C34.6816 23.2313 34.1858 23.7383 33.6064 24.1111C32.8049 24.6263 32.1687 25.3276 31.4136 25.8921C30.8279 26.3299 30.3106 26.8585 29.7319 27.3062C29.6313 27.3845 29.3753 27.2636 29.1073 27.2209C29.2461 27.5576 29.1081 27.9553 28.7942 28.0137C28.1526 28.133 27.89 28.7 27.4116 28.9999C27.2223 29.1183 27.1825 29.47 26.9949 29.5984C26.1831 30.1543 25.3969 30.7379 24.7193 31.4524C24.5002 31.6831 24.385 32.0236 24.1452 32.2207C23.7372 32.5562 23.1089 32.724 22.8657 33.1353C22.5729 33.6315 22.0087 33.8282 21.7847 34.3551C21.7321 34.4789 21.4699 34.4988 21.3406 34.6094C21.1973 34.7324 21.0884 35.0381 20.9782 35.0315C20.5545 35.0054 20.3167 35.2978 20.1875 35.5575C20.0168 35.9005 19.8164 36.2907 19.5152 36.3785C19.0431 36.516 19.1131 37.0225 18.7457 37.2081C18.2987 37.4334 17.9674 37.8381 17.5838 38.1583C17.1725 38.5012 16.9033 39.0095 16.5255 39.3996C15.5828 40.3738 14.6136 41.322 13.6551 42.2804C13.2558 42.6797 12.8474 43.0707 12.4602 43.4812C12.128 43.8328 11.8662 44.2313 11.8575 44.7772M12.2961 35.8263C11.6554 35.6209 11.2768 35.8723 10.9885 36.1643C10.7284 36.4282 10.6696 36.8921 10.1895 36.9351C10.2243 37.4483 9.61336 37.4044 9.47833 37.7499C9.31182 38.1769 8.80608 38.0386 8.58117 38.3447C8.72448 38.6338 8.72448 38.6338 8.04726 39.3027C7.60821 39.7372 7.60821 39.7372 7.03123 39.8627C6.99436 40.0673 6.95708 40.274 6.91525 40.5068C6.79803 40.402 6.71809 40.3308 6.49939 40.1353C6.593 40.4654 6.64395 40.6435 6.70939 40.875C6.38839 40.8854 6.06572 41.2105 5.6391 40.9533C5.5985 40.9293 5.35413 41.2445 5.16028 41.4479C4.93454 41.0266 4.72785 40.6427 4.49714 40.2136C4.84797 39.5504 5.27833 38.9026 5.84164 38.331C6.40744 37.7565 6.88584 37.095 7.45454 36.5238C7.96939 36.0057 8.5472 35.5488 9.11134 35.0808C9.64815 34.6347 9.99111 33.9678 10.6832 33.6994C11.2565 32.5264 12.6424 32.2708 13.4029 31.2776C13.7997 30.7594 14.4579 30.45 15.099 30.2321C15.3658 30.141 15.6715 30.1634 15.9597 30.1344L17.1531 30.863C17.2081 30.9048 17.2645 30.9454 17.3192 30.9885C18.1215 31.6209 18.1476 31.6305 17.8212 32.5173C17.6174 33.0706 17.3208 33.5896 17.0607 34.1347C16.8142 34.1476 16.5612 34.1604 16.2224 34.1782C16.3209 34.305 16.4067 34.3675 16.4228 34.4446C16.5322 34.9665 16.579 35.4788 16.043 35.8259C16.1221 36.475 15.4905 36.7885 15.3297 37.339C15.1752 37.8688 14.8944 38.3617 14.6666 38.8695C14.609 38.9975 14.5411 39.1209 14.4719 39.2572C14.7946 39.5235 15.0377 39.3226 15.2896 39.0683C16.2161 38.1322 17.1526 37.2052 18.0817 36.2712C18.8534 35.4954 19.6764 34.7825 20.5661 34.143C20.7483 34.0117 20.8291 33.7458 21.0002 33.5896C21.5958 33.0446 22.2047 32.5131 22.8197 31.99C23.4067 31.4909 23.8147 30.8017 24.5532 30.4537C24.8415 30.3179 25.0088 29.9418 25.2892 29.7674C25.5303 29.6175 25.6657 29.4182 25.8455 29.226C26.2613 28.7808 26.7513 28.3765 27.2803 28.0762C27.5474 27.9242 27.5872 27.3584 28.0755 27.5995C28.2918 27.3195 28.4852 27.0171 28.7287 26.7636C29.5137 25.946 30.4075 25.258 31.3254 24.5949C31.8874 24.1893 32.3874 23.6989 32.9151 23.2462C33.9705 22.3416 35.0089 21.4154 36.0862 20.5369C37.5144 19.3714 38.9657 18.2335 40.4204 17.1011C41.6692 16.1298 42.9023 15.1316 44.2045 14.2361C46.1198 12.9198 47.8976 11.422 49.8298 10.1231C51.3342 9.1116 52.839 8.08148 54.2908 7.00124C55.8113 5.86964 57.4283 4.89089 58.9584 3.78083C59.9525 3.06012 61.0687 2.51006 62.0984 1.83574C62.9844 1.25627 63.9242 0.767515 64.8011 0.175621C64.9092 0.102308 65.038 0.0592308 65.1619 0C65.4754 0.551302 65.0919 0.803964 64.8024 1.0645C64.5315 1.30763 64.2216 1.50686 63.718 1.88337C64.647 1.74669 65.0989 1.27036 65.6013 0.924911C65.8797 0.73355 66.0868 0.622959 66.4434 0.832959C66.3676 0.985799 66.2931 1.13698 66.2111 1.30349C66.5428 1.38426 66.9077 1.4729 67.317 1.57272C67.208 1.82497 67.0651 1.99976 67.1041 2.1087C67.1488 2.23213 67.3567 2.29675 67.5054 2.3945C67.3886 2.66083 66.9682 2.78136 67.0726 3.19308C67.0879 3.25314 66.9313 3.4213 66.9177 3.41426C66.4057 3.15497 66.4637 3.83219 66.1112 3.9142C65.9016 3.96308 65.4531 4.01402 65.4394 4.47544C65.4373 4.53467 64.9738 4.51976 64.8769 4.65148C64.7572 4.8155 64.7858 5.08018 64.4631 5.00976C64.3944 4.99444 64.256 5.00479 64.2531 5.02302C64.1036 5.81787 63.3029 5.63604 62.8523 5.97071C62.6174 6.14467 62.2372 6.18651 62.2219 6.58828C61.7103 6.52615 61.9054 7.38852 61.3964 7.25308C60.906 7.1226 61.0037 8.00278 60.457 7.74556C60.4197 7.72817 60.2031 8.11669 60.0535 8.30391C59.8742 8.52799 59.3113 8.19456 59.3647 8.77112C59.0677 8.87177 58.7753 9.03663 58.4721 9.05858C58.0049 9.09254 57.8098 9.2926 57.8123 9.7474C57.8127 9.83811 57.7369 9.97479 57.659 10.0125C57.4399 10.1169 57.1632 10.1314 56.9826 10.2743C56.7992 10.4188 56.6596 10.8686 56.5776 10.85C55.9434 10.705 56.0329 11.458 55.5826 11.5699C55.429 11.4933 55.243 11.4005 54.9775 11.2683C54.6826 12.1804 53.6947 12.4546 53.278 13.2619C53.1621 13.4872 52.9483 13.6372 52.6306 13.5991C51.9832 13.5224 51.5545 13.7631 51.4845 14.4776C51.4725 14.6031 51.345 14.818 51.2658 14.8205C50.4851 14.8441 50.4109 15.7881 49.7171 15.9666C49.3717 16.0557 49.2321 16.6426 48.7098 16.5407C48.6754 16.5341 48.6141 16.6993 48.5553 16.7776C48.4476 16.9222 48.2757 17.0464 48.2318 17.2067C48.1067 17.6599 47.5774 17.2146 47.4129 17.6209C47.309 17.8782 47.0936 18.1068 46.8844 18.3007C46.6508 18.5173 46.3377 18.6507 46.1144 18.8747C45.8659 19.1237 45.5743 19.1862 45.2678 19.3001C45.0189 19.3929 44.9041 19.9893 44.6921 20.0121C44.1234 20.0726 44.0177 20.5676 43.6851 20.8347C43.319 21.1296 42.9458 21.4163 42.5825 21.7153C42.334 21.9195 42.1692 22.2513 41.755 22.1925C41.7028 22.185 41.641 22.4104 41.5495 22.4866C41.1958 22.7815 41.0376 23.3353 40.4374 23.3199C40.3599 23.3179 40.285 23.4997 40.1959 23.583C39.4184 24.3099 38.6385 25.0335 37.8594 25.7579C37.277 25.6341 37.2323 26.2218 36.9328 26.4679C36.3372 26.9562 35.7677 27.4756 35.1832 27.9772C35.1339 28.0199 35.0561 28.0344 34.989 28.0501C33.9763 28.2875 33.9763 28.287 33.2858 28.9614C32.9122 28.8922 32.5017 28.705 32.1641 28.7932C31.9318 28.8537 31.8 29.2969 31.7466 29.6763C32.0324 29.4965 32.319 29.3163 32.8422 28.9875C32.6405 29.4526 32.3079 29.5843 32.3145 29.7525C32.329 30.1137 32.0411 30.0184 31.904 30.1422C30.9141 31.0369 29.949 31.9585 28.9512 32.8433C28.6915 33.0731 28.6732 33.6526 28.1074 33.4766C27.786 33.9508 27.0732 34.1389 27.0926 34.8633C27.0935 34.8973 27.0893 34.9462 27.0678 34.964C26.4788 35.4482 25.8877 35.9291 25.2967 36.4108C24.8746 36.3097 24.7044 36.6597 24.4786 36.8854C23.5351 37.829 22.5683 38.7493 21.7474 39.8126C21.4964 40.1386 21.247 40.5942 20.675 40.489C20.6083 40.477 20.4828 40.6116 20.4364 40.704C20.3134 40.9525 20.277 41.2739 20.0951 41.4557C19.9133 41.6376 19.5124 41.6152 19.357 41.8053C18.9548 42.2962 18.5999 42.8346 18.2929 43.3913C18.0067 43.9103 17.3626 44.4753 16.7235 44.6161V45.3086C16.176 45.896 15.5236 46.3951 14.9926 47.0218C14.4591 47.6514 13.88 48.2627 13.2322 48.7685C12.7451 49.1483 12.2601 49.4614 12.1346 50.1163C12.1172 50.2082 11.9813 50.2753 11.9043 50.3577C10.8659 51.4707 9.82128 52.5783 8.79241 53.6995C8.12347 54.4285 7.53986 55.2329 6.81377 55.9122C6.7243 55.9963 6.71685 56.1682 6.6746 56.292H5.96507C5.88762 56.4453 5.76998 56.5936 5.7385 56.758C5.64531 57.238 5.44111 57.5562 4.95691 57.7898C4.36211 58.0768 4.39773 58.1476 3.85513 57.7947C3.76773 57.738 3.6704 57.6962 3.5772 57.6481C3.25702 57.482 3.05448 58.1145 2.6962 57.7695C2.42448 57.5077 2.19998 57.656 1.91667 57.8304C1.6346 58.0039 1.4975 57.8908 0.973948 57.3942C1.00294 57.1639 1.02655 56.9796 1.05016 56.7953C0.921344 56.8143 0.774717 56.8015 0.669096 56.8611C0.542764 56.9324 0.451226 57.0657 0.341463 57.1755C0.297143 57.1341 0.222587 57.0985 0.212646 57.0496C0.129392 56.6308 -0.0557563 56.1893 0.0163147 55.7954C0.0801017 55.4454 0.470693 55.1675 0.650042 54.8228C1.28129 53.6109 1.90549 52.3964 2.65105 51.2483C3.05489 50.6262 3.31584 49.9183 3.83898 49.3637C3.9914 49.2017 3.95288 48.8596 4.10614 48.698C4.25608 48.539 4.59117 48.5618 4.50998 48.1931C4.49217 48.1124 4.57791 47.998 4.63673 47.9131C5.15862 47.1589 5.58028 46.3375 6.0972 45.5886C6.50188 45.0025 6.84981 44.3908 7.20726 43.7823C7.67117 42.9933 8.30738 42.309 8.62963 41.4342C8.64123 41.4023 8.6785 41.377 8.70791 41.3547C8.95478 41.167 9.20247 40.9815 9.45016 40.7951C9.22981 40.4281 9.47501 40.1949 9.673 39.9257C9.85856 39.6734 9.95383 39.3495 10.156 39.1151C10.7648 38.4093 11.1534 37.5643 11.6732 36.8038C11.8708 36.5156 12.0493 36.2149 12.2961 35.8263" fill="white"/>
<path fill-rule="evenodd" clip-rule="evenodd" d="M53.9788 26.2439C54.6933 25.5675 55.3349 24.781 56.1459 24.2533C56.6935 23.8971 57.1404 23.434 57.6664 23.0633C59.0184 22.1119 60.3148 21.0693 61.603 20.033C62.7031 19.1482 63.8567 18.3339 64.9501 17.4413C66.0304 16.5599 67.1541 15.7162 68.3391 14.9876C68.7637 14.7262 69.1373 14.3936 69.547 14.1232C70.4396 13.5337 71.3235 12.9141 72.1655 12.2439C72.7259 11.7978 73.4085 11.5187 73.8985 10.969C74.0071 10.8472 74.1976 10.7441 74.3575 10.7325C75.4924 10.6526 76.1286 9.72185 76.9947 9.19292C77.6665 8.78286 78.2435 8.21955 78.9 7.78132C79.2405 7.55434 79.6518 7.3899 80.0532 7.31369C80.2893 7.26854 80.5693 7.45162 80.8613 7.54191C80.696 7.76392 80.5597 7.95901 80.4102 8.14333C80.334 8.23736 80.2346 8.31233 80.1451 8.39558L79.2827 9.08688C79.1709 9.39836 78.97 9.59138 78.62 9.52179C78.2348 9.44517 78.5061 10.1149 78.031 9.99481C77.7001 9.91073 77.6115 10.2491 77.4516 10.5035C77.2739 10.7851 76.9334 10.9935 76.6227 11.1558C75.7239 11.6259 75.0045 12.3384 74.2146 12.9481C73.9321 13.1668 73.3141 12.912 73.3423 13.5453C72.9231 13.581 72.7491 14.1563 72.4795 14.1455C71.8043 14.1182 71.794 14.8476 71.2568 15.0174C70.7904 15.1645 70.4648 15.7249 69.9868 16.0214C69.3183 16.4369 68.7314 16.9803 68.0807 17.4272C67.1612 18.0585 66.2379 18.6781 65.4107 19.434C64.9568 19.8487 64.4589 20.2152 63.9735 20.5938C63.6885 20.8158 63.3899 21.0192 63.1268 21.2097C63.0299 21.1894 62.8477 21.112 62.8183 21.1509C61.7538 22.5439 60.2991 23.4663 58.8842 24.4355C58.342 24.8066 57.9704 25.3571 57.3831 25.7067C56.732 26.0948 56.2001 26.6855 55.6265 27.1991C55.2744 27.5139 55.0205 27.945 54.4133 27.8477C54.1838 27.8108 54.0388 28.0813 53.9577 28.3704C53.8583 28.7271 53.5903 29.0311 53.2038 29.164C52.6977 29.338 52.3477 29.6681 52.0155 30.0952C51.6158 30.6096 51.1258 31.0569 50.5388 31.4011C50.0078 31.7126 49.7585 32.3915 49.109 32.5916C49.0138 32.621 48.95 32.7473 48.8671 32.8235C47.941 33.6759 47.0422 34.5615 46.0804 35.3713C44.4112 36.7766 42.8277 38.2723 41.2177 39.7415C40.4274 40.4626 39.6507 41.2016 38.8584 41.9214C38.5941 42.1608 38.1749 42.2934 38.0258 42.5792C37.8452 42.9255 37.6067 43.0878 37.308 43.2912C37.0052 43.4979 36.7509 43.7414 36.2299 43.6072C36.4113 43.8015 36.461 43.8549 36.5504 43.9506C36.1188 44.2671 35.6922 44.5806 35.259 44.8979C35.3062 44.9513 35.3762 45.0296 35.4333 45.0938C35.2097 45.2545 35.0001 45.4653 34.7462 45.5714C34.4906 45.6778 34.1916 45.6803 33.7281 45.7598C34.0222 45.9264 34.2081 46.0311 34.448 46.167C33.9803 46.4072 33.6465 46.5791 33.2841 46.7655C33.1602 46.6487 33.0053 46.5025 32.8496 46.3567C32.7431 46.4632 32.6367 46.5696 32.5145 46.6918C32.6714 46.7655 32.821 46.8359 32.9958 46.9179C32.9585 47.0236 32.9394 47.1325 32.8852 47.2191C32.7721 47.4005 32.6072 47.5554 32.5223 47.7472C32.3446 48.1506 32.3579 48.1523 31.6935 48.4244C31.5974 48.4637 31.5113 48.5665 31.4554 48.6605C31.2524 49.0018 30.9355 49.3278 30.7334 49.3766C30.7773 49.4831 30.8879 49.638 30.8527 49.6865C30.7645 49.8066 30.5607 49.8505 30.4911 49.9743C30.1958 50.4983 30.0326 51.1511 29.2303 51.1055C28.9909 51.4203 28.8065 51.8146 28.4971 52.0288C28.1463 52.2719 28.3522 52.8423 28.1094 52.8638C27.5585 52.9123 27.8858 53.3273 27.7275 53.512C27.3249 53.9208 26.8892 52.9719 26.4506 53.5443C26.6055 52.6625 26.9563 51.8627 27.5503 51.2281C28.3513 50.3736 29.0468 49.44 29.7911 48.5441C30.5338 47.6507 31.428 46.8836 32.2457 46.0514C32.502 45.7905 32.7278 45.4993 32.9676 45.2218C33.4158 45.0561 33.7861 44.7827 34.105 44.4278C34.3051 44.2049 34.4989 43.9552 34.747 43.8011C35.0171 43.6342 34.8961 43.2071 35.3559 43.1255C35.6591 43.0717 35.8807 42.6185 36.1632 42.3733C36.4328 42.1401 36.7708 41.9786 37.0123 41.723C37.267 41.4534 37.4472 41.1374 37.7947 40.9323C38.1083 40.748 38.4023 40.4572 38.5862 40.1441C38.8861 39.6338 39.3699 39.319 39.8052 39.0038C40.1606 38.7466 40.4787 38.4608 40.8043 38.1762C41.0826 37.9327 41.2972 37.6216 41.5519 37.3594C41.8253 37.0786 42.1111 36.9361 42.418 36.7423C42.8007 36.4995 43.0422 36.0402 43.3641 35.6923C43.5757 35.4636 43.8019 35.1248 44.0562 35.0896C44.4066 35.0411 44.5466 34.7959 44.7901 34.6593C45.1095 34.4811 45.0457 33.9721 45.479 33.9253C45.5589 33.3794 46.1566 33.5546 46.4204 33.2468C46.8003 32.8045 47.2145 32.3919 47.62 31.9599C47.6651 32.0108 47.714 32.0659 47.7919 32.1546C48.1282 31.7478 48.4542 31.3519 48.7839 30.9588C48.8443 30.8863 48.9326 30.7633 48.9897 30.7728C49.4043 30.8416 49.5675 30.504 49.8132 30.2981C50.1164 30.0446 50.3761 29.7638 50.7385 29.5517C51.3275 29.2075 51.8585 28.7233 52.3183 28.2122C52.6691 27.8229 53.0154 27.5019 53.4921 27.2653C53.8496 27.0881 54.1225 26.7294 53.9788 26.2439" fill="white"/>
<path fill-rule="evenodd" clip-rule="evenodd" d="M53.9788 26.2439C54.1226 26.7293 53.8496 27.088 53.4921 27.2653C53.0154 27.5018 52.6691 27.8228 52.3183 28.2122C51.8585 28.7233 51.3275 29.2075 50.7385 29.5517C50.3761 29.7638 50.1164 30.0446 49.8132 30.2981C49.5676 30.504 49.4044 30.8415 48.9898 30.7728C48.9326 30.7632 48.8444 30.8863 48.7839 30.9587C48.4542 31.3518 48.1282 31.7478 47.7919 32.1545C47.714 32.0659 47.6652 32.0108 47.62 31.9599C47.2145 32.3919 46.8003 32.8044 46.4205 33.2468C46.1566 33.5545 45.559 33.3793 45.479 33.9253C45.0458 33.9721 45.1095 34.4811 44.7902 34.6592C44.5466 34.7959 44.4066 35.0411 44.0562 35.0896C43.8019 35.1248 43.5758 35.4636 43.3641 35.6922C43.0423 36.0402 42.8008 36.4995 42.4181 36.7422C42.1111 36.9361 41.8253 37.0786 41.552 37.3594C41.2972 37.6216 41.0827 37.9327 40.8043 38.1762C40.4788 38.4608 40.1607 38.7466 39.8053 39.0038C39.37 39.319 38.8862 39.6338 38.5863 40.1441C38.4024 40.4572 38.1083 40.748 37.7948 40.9323C37.4472 41.1373 37.2671 41.4534 37.0123 41.723C36.7708 41.9786 36.4329 42.1401 36.1632 42.3733C35.8807 42.6185 35.6591 43.0716 35.3559 43.1255C34.8962 43.2071 35.0171 43.6341 34.7471 43.8011C34.499 43.9551 34.3051 44.2049 34.105 44.4277C33.7861 44.7827 33.4158 45.0561 32.9677 45.2218C32.9942 45.0072 32.9465 44.7289 33.0637 44.5914C33.2659 44.3544 33.5997 44.2343 33.8238 44.0102C34.0479 43.7866 34.175 43.4664 34.3991 43.2423C34.6232 43.0182 34.9724 42.9076 35.1637 42.6661C35.6339 42.0734 36.2365 41.6257 36.7597 41.0934C37.3135 40.5297 37.8635 39.9614 38.4376 39.4188C39.4346 38.4769 40.3959 37.4857 41.4737 36.6453C42.1795 36.0957 42.7424 35.4023 43.4469 34.8787C44.7633 33.9004 45.8833 32.6955 47.2182 31.7379C47.9621 31.2044 48.6 30.5243 49.2913 29.9166C50.3235 29.0087 51.3801 28.1331 52.5155 27.3506C52.8812 27.0988 53.1475 26.7074 53.4876 26.4116C53.6085 26.3064 53.8132 26.2969 53.9788 26.2439" fill="white"/>
</svg>
